<svg width="441" height="464" viewBox="0 0 441 464" fill="none" xmlns="http://www.w3.org/2000/svg">
<path d="M149.008 32.0039C149.008 14.3308 163.335 0.00390625 181.008 0.00390625H339.633C357.306 0.00390625 371.633 14.3308 371.633 32.0039V108.933C371.633 126.606 357.306 140.933 339.633 140.933H149.008V32.0039Z" fill="black"/>
<path d="M0.591309 173.968C0.591309 156.295 14.9182 141.968 32.5913 141.968H149.008V321.036H32.5913C14.9182 321.036 0.591309 306.709 0.591309 289.036V173.968Z" fill="black"/>
<path d="M149.008 321.036H409.002C426.675 321.036 441.002 335.363 441.002 353.036V431.066C441.002 448.74 426.675 463.066 409.002 463.066H181.008C163.335 463.066 149.008 448.74 149.008 431.066V321.036Z" fill="black"/>
</svg>
