<svg width="472" height="495" viewBox="0 0 472 495" fill="none" xmlns="http://www.w3.org/2000/svg">
<path fill-rule="evenodd" clip-rule="evenodd" d="M172.238 166.494H352.911C379.42 166.494 400.911 145.004 400.911 118.494V48.3613C400.911 21.8517 379.42 0.361328 352.911 0.361328H197.748C171.238 0.361328 149.748 21.8517 149.748 48.3613V144.297H45.0093C20.1565 144.297 0.00927734 164.444 0.00927734 189.297V304.609C0.00927734 329.462 20.1565 349.609 45.0093 349.609H149.748V448.708C149.748 474.113 170.343 494.708 195.748 494.708H425.181C450.586 494.708 471.181 474.113 471.181 448.708V373.448C471.181 348.043 450.586 327.448 425.181 327.448H172.238V166.494ZM352.911 22.3613H197.748C183.388 22.3613 171.748 34.0019 171.748 48.3613V144.297H172.238V144.494H352.911C367.27 144.494 378.911 132.854 378.911 118.494V48.3613C378.911 34.0019 367.27 22.3613 352.911 22.3613ZM149.748 166.297V166.494H150.238V327.448H149.748V327.609H45.0093C32.3067 327.609 22.0093 317.312 22.0093 304.609V189.297C22.0093 176.594 32.3067 166.297 45.0093 166.297H149.748ZM171.748 349.609H172.238V349.448H425.181C438.436 349.448 449.181 360.193 449.181 373.448V448.708C449.181 461.963 438.436 472.708 425.181 472.708H195.748C182.493 472.708 171.748 461.963 171.748 448.708V349.609Z" fill="black"/>
</svg>
